<?xml version="1.0" encoding="UTF-8" standalone="no"?>
<!DOCTYPE svg PUBLIC "-//W3C//DTD SVG 1.1//EN" "http://www.w3.org/Graphics/SVG/1.1/DTD/svg11.dtd">
<svg width="100%" height="100%" viewBox="0 0 921 119" version="1.1" xmlns="http://www.w3.org/2000/svg" xmlns:xlink="http://www.w3.org/1999/xlink" xml:space="preserve" xmlns:serif="http://www.serif.com/" style="fill-rule:evenodd;clip-rule:evenodd;stroke-linejoin:round;stroke-miterlimit:2;">
    <g transform="matrix(1,0,0,1,-1912.521852,-4443.77112)">
        <g transform="matrix(3.137351,0,0,3.137351,-934.745889,-9627.228989)">
            <path d="M952.094,4503.378C954.341,4504.452 956.037,4505.669 957.185,4507.028C958.332,4508.387 958.906,4509.904 958.906,4511.581C958.906,4512.264 958.788,4513.029 958.552,4513.876C958.316,4514.722 957.885,4515.568 957.258,4516.415C956.631,4517.261 955.781,4518.071 954.707,4518.844C953.633,4519.617 952.257,4520.272 950.581,4520.809C948.693,4521.428 946.495,4521.888 943.989,4522.189C941.482,4522.49 938.667,4522.64 935.542,4522.64C933.344,4522.64 931.192,4522.486 929.084,4522.176C926.976,4521.867 924.991,4521.424 923.127,4520.846C921.264,4520.268 919.567,4519.572 918.037,4518.759C916.507,4517.945 915.213,4517.041 914.155,4516.049L918.037,4511.947C918.672,4512.549 919.551,4513.155 920.674,4513.766C921.797,4514.376 923.111,4514.917 924.616,4515.389C926.122,4515.861 927.794,4516.248 929.634,4516.549C931.473,4516.85 933.442,4517.001 935.542,4517.001C936.502,4517.001 937.584,4516.96 938.789,4516.879C939.993,4516.797 941.214,4516.667 942.451,4516.488C943.688,4516.309 944.896,4516.081 946.076,4515.804C947.256,4515.528 948.306,4515.198 949.226,4514.816C950.145,4514.433 950.886,4513.986 951.447,4513.473C952.009,4512.96 952.29,4512.386 952.29,4511.752C952.29,4511.215 952.086,4510.645 951.679,4510.043C951.273,4509.44 950.577,4508.887 949.592,4508.383C948.607,4507.878 947.297,4507.459 945.661,4507.125C944.026,4506.792 941.971,4506.625 939.497,4506.625L915.18,4506.625C915.05,4507.146 914.904,4507.74 914.741,4508.407C914.578,4509.074 914.456,4509.717 914.375,4510.336C914.31,4510.84 914.245,4511.39 914.179,4511.984C914.114,4512.578 914.061,4513.192 914.021,4513.827C913.98,4514.462 913.943,4515.096 913.911,4515.731C913.878,4516.366 913.846,4516.976 913.813,4517.562C913.748,4518.929 913.707,4520.313 913.691,4521.713L907.539,4521.713L907.539,4485.922L913.691,4485.922L913.691,4496.127C913.854,4495.899 914.155,4495.468 914.594,4494.833C915.034,4494.198 915.665,4493.466 916.487,4492.635C917.308,4491.805 918.342,4490.943 919.587,4490.048C920.832,4489.152 922.326,4488.33 924.067,4487.582C925.809,4486.833 927.831,4486.215 930.134,4485.726C932.437,4485.238 935.053,4484.994 937.983,4484.994C940.669,4484.994 943.118,4485.246 945.332,4485.751C947.545,4486.255 949.466,4486.996 951.093,4487.972C952.737,4488.965 954.007,4490.157 954.902,4491.549C955.797,4492.941 956.245,4494.426 956.245,4496.005C956.245,4497.421 955.883,4498.763 955.158,4500.033C954.434,4501.302 953.413,4502.417 952.094,4503.378ZM940.009,4500.985C941.832,4500.985 943.411,4500.822 944.746,4500.497C946.08,4500.171 947.179,4499.764 948.042,4499.276C948.904,4498.788 949.547,4498.251 949.97,4497.665C950.394,4497.079 950.605,4496.525 950.605,4496.005C950.605,4495.451 950.394,4494.898 949.97,4494.344C949.547,4493.791 948.945,4493.278 948.164,4492.806C947.757,4492.562 947.252,4492.31 946.65,4492.05C946.048,4491.789 945.332,4491.553 944.502,4491.342C943.672,4491.13 942.719,4490.959 941.645,4490.829C940.571,4490.699 939.35,4490.634 937.983,4490.634C935.037,4490.634 932.449,4490.898 930.219,4491.427C927.99,4491.956 926.053,4492.684 924.409,4493.612C922.765,4494.54 921.373,4495.634 920.234,4496.896C919.095,4498.157 918.134,4499.52 917.353,4500.985L940.009,4500.985Z" style="fill:rgb(194,101,47);fill-rule:nonzero;"/>
        </g>
        <g transform="matrix(3.137351,0,0,3.137351,-934.745889,-9627.228989)">
            <path d="M982.326,4486.166L990.269,4486.166L990.269,4509.517C990.269,4512.269 989.689,4514.589 988.528,4516.479C987.367,4518.37 985.755,4519.796 983.691,4520.758C981.628,4521.72 979.23,4522.201 976.498,4522.201C973.776,4522.201 971.373,4521.72 969.292,4520.758C967.21,4519.796 965.583,4518.37 964.411,4516.479C963.239,4514.589 962.653,4512.269 962.653,4509.517L962.653,4486.166L970.613,4486.166L970.613,4509.517C970.613,4511.045 970.846,4512.292 971.311,4513.258C971.776,4514.223 972.449,4514.93 973.33,4515.38C974.21,4515.829 975.267,4516.054 976.498,4516.054C977.746,4516.054 978.804,4515.829 979.671,4515.38C980.538,4514.93 981.197,4514.223 981.649,4513.258C982.1,4512.292 982.326,4511.045 982.326,4509.517L982.326,4486.166Z" style="fill:rgb(29,32,31);fill-rule:nonzero;"/>
        </g>
        <g transform="matrix(3.137351,0,0,3.137351,-934.745889,-9627.228989)">
            <path d="M1007.204,4521.713L999.393,4521.713L999.442,4515.566L1007.204,4515.566C1008.979,4515.566 1010.477,4515.152 1011.698,4514.325C1012.92,4513.498 1013.849,4512.277 1014.485,4510.662C1015.121,4509.047 1015.44,4507.076 1015.44,4504.747L1015.44,4503.107C1015.44,4501.345 1015.26,4499.794 1014.902,4498.453C1014.543,4497.112 1014.014,4495.987 1013.316,4495.08C1012.618,4494.172 1011.753,4493.488 1010.722,4493.028C1009.69,4492.567 1008.507,4492.337 1007.173,4492.337L999.247,4492.337L999.247,4486.166L1007.173,4486.166C1009.568,4486.166 1011.764,4486.573 1013.76,4487.387C1015.755,4488.201 1017.483,4489.364 1018.943,4490.875C1020.403,4492.386 1021.531,4494.178 1022.327,4496.251C1023.124,4498.323 1023.522,4500.625 1023.522,4503.156L1023.522,4504.747C1023.522,4507.264 1023.124,4509.562 1022.327,4511.642C1021.531,4513.721 1020.405,4515.512 1018.949,4517.016C1017.494,4518.519 1015.77,4519.677 1013.779,4520.492C1011.788,4521.306 1009.596,4521.713 1007.204,4521.713ZM1003.915,4486.166L1003.915,4521.713L995.967,4521.713L995.967,4486.166L1003.915,4486.166Z" style="fill:rgb(29,32,31);fill-rule:nonzero;"/>
        </g>
        <g transform="matrix(3.137351,0,0,3.137351,-934.745889,-9627.228989)">
            <path d="M1057.015,4502.927L1057.015,4517.271C1056.439,4517.936 1055.552,4518.65 1054.352,4519.415C1053.153,4520.18 1051.626,4520.835 1049.771,4521.382C1047.916,4521.928 1045.702,4522.201 1043.131,4522.201C1040.803,4522.201 1038.687,4521.822 1036.783,4521.066C1034.88,4520.309 1033.244,4519.195 1031.877,4517.725C1030.509,4516.255 1029.457,4514.453 1028.719,4512.321C1027.981,4510.188 1027.612,4507.748 1027.612,4504.999L1027.612,4502.896C1027.612,4500.147 1027.976,4497.704 1028.705,4495.566C1029.434,4493.428 1030.467,4491.624 1031.804,4490.153C1033.141,4488.683 1034.727,4487.566 1036.563,4486.802C1038.398,4486.039 1040.429,4485.657 1042.656,4485.657C1045.838,4485.657 1048.437,4486.166 1050.452,4487.184C1052.467,4488.201 1054.002,4489.604 1055.056,4491.391C1056.11,4493.178 1056.756,4495.238 1056.995,4497.569L1049.334,4497.569C1049.163,4496.379 1048.84,4495.354 1048.363,4494.494C1047.887,4493.634 1047.207,4492.971 1046.325,4492.506C1045.442,4492.04 1044.301,4491.808 1042.901,4491.808C1041.776,4491.808 1040.765,4492.041 1039.868,4492.506C1038.971,4492.972 1038.213,4493.668 1037.596,4494.593C1036.978,4495.518 1036.506,4496.668 1036.178,4498.045C1035.85,4499.422 1035.686,4501.022 1035.686,4502.847L1035.686,4504.999C1035.686,4506.818 1035.851,4508.417 1036.181,4509.796C1036.511,4511.175 1037.004,4512.328 1037.66,4513.255C1038.317,4514.181 1039.144,4514.879 1040.144,4515.349C1041.143,4515.819 1042.311,4516.054 1043.647,4516.054C1044.682,4516.054 1045.557,4515.966 1046.271,4515.79C1046.985,4515.615 1047.57,4515.396 1048.026,4515.134C1048.482,4514.872 1048.831,4514.623 1049.072,4514.388L1049.072,4508.476L1042.749,4508.476L1042.749,4502.927L1057.015,4502.927Z" style="fill:rgb(29,32,31);fill-rule:nonzero;"/>
        </g>
        <g transform="matrix(3.137351,0,0,3.137351,-934.745889,-9627.228989)">
            <path d="M1086.629,4515.566L1086.629,4521.713L1067.703,4521.713L1067.703,4515.566L1086.629,4515.566ZM1070.416,4486.166L1070.416,4521.713L1062.469,4521.713L1062.469,4486.166L1070.416,4486.166ZM1084.179,4500.466L1084.179,4506.429L1067.703,4506.429L1067.703,4500.466L1084.179,4500.466ZM1086.651,4486.166L1086.651,4492.337L1067.703,4492.337L1067.703,4486.166L1086.651,4486.166Z" style="fill:rgb(29,32,31);fill-rule:nonzero;"/>
        </g>
        <g transform="matrix(3.137351,0,0,3.137351,-934.745889,-9627.228989)">
            <path d="M1107.561,4486.166L1107.561,4521.713L1099.626,4521.713L1099.626,4486.166L1107.561,4486.166ZM1118.373,4486.166L1118.373,4492.337L1089.023,4492.337L1089.023,4486.166L1118.373,4486.166Z" style="fill:rgb(29,32,31);fill-rule:nonzero;"/>
        </g>
        <g transform="matrix(3.137351,0,0,3.137351,-934.745889,-9627.228989)">
            <rect x="1122.8" y="4486.166" width="7.927" height="35.547" style="fill:rgb(29,32,31);fill-rule:nonzero;"/>
        </g>
        <g transform="matrix(3.137351,0,0,3.137351,-934.745889,-9627.228989)">
            <path d="M1166.452,4486.166L1166.452,4521.713L1158.521,4521.713L1145.089,4498.739L1145.089,4521.713L1137.142,4521.713L1137.142,4486.166L1145.089,4486.166L1158.533,4509.151L1158.533,4486.166L1166.452,4486.166Z" style="fill:rgb(29,32,31);fill-rule:nonzero;"/>
        </g>
        <g transform="matrix(3.137351,0,0,3.137351,-934.745889,-9627.228989)">
            <path d="M1200.965,4502.927L1200.965,4517.271C1200.389,4517.936 1199.501,4518.65 1198.302,4519.415C1197.102,4520.18 1195.575,4520.835 1193.72,4521.382C1191.865,4521.928 1189.652,4522.201 1187.081,4522.201C1184.752,4522.201 1182.636,4521.822 1180.733,4521.066C1178.829,4520.309 1177.194,4519.195 1175.826,4517.725C1174.459,4516.255 1173.406,4514.453 1172.668,4512.321C1171.93,4510.188 1171.561,4507.748 1171.561,4504.999L1171.561,4502.896C1171.561,4500.147 1171.926,4497.704 1172.655,4495.566C1173.384,4493.428 1174.417,4491.624 1175.753,4490.153C1177.09,4488.683 1178.676,4487.566 1180.512,4486.802C1182.347,4486.039 1184.378,4485.657 1186.605,4485.657C1189.787,4485.657 1192.386,4486.166 1194.401,4487.184C1196.417,4488.201 1197.952,4489.604 1199.006,4491.391C1200.06,4493.178 1200.706,4495.238 1200.944,4497.569L1193.283,4497.569C1193.113,4496.379 1192.789,4495.354 1192.313,4494.494C1191.836,4493.634 1191.157,4492.971 1190.274,4492.506C1189.391,4492.04 1188.25,4491.808 1186.851,4491.808C1185.725,4491.808 1184.714,4492.041 1183.817,4492.506C1182.92,4492.972 1182.163,4493.668 1181.545,4494.593C1180.928,4495.518 1180.455,4496.668 1180.127,4498.045C1179.799,4499.422 1179.635,4501.022 1179.635,4502.847L1179.635,4504.999C1179.635,4506.818 1179.8,4508.417 1180.13,4509.796C1180.46,4511.175 1180.953,4512.328 1181.61,4513.255C1182.266,4514.181 1183.094,4514.879 1184.093,4515.349C1185.092,4515.819 1186.26,4516.054 1187.597,4516.054C1188.632,4516.054 1189.506,4515.966 1190.22,4515.79C1190.934,4515.615 1191.519,4515.396 1191.975,4515.134C1192.431,4514.872 1192.78,4514.623 1193.021,4514.388L1193.021,4508.476L1186.698,4508.476L1186.698,4502.927L1200.965,4502.927Z" style="fill:rgb(29,32,31);fill-rule:nonzero;"/>
        </g>
    </g>
</svg>
